<svg xmlns="http://www.w3.org/2000/svg" viewBox="0 0 64 64">
<rect width="64" height="64" rx="14" fill="#0f172a"/>
<g fill="none" stroke="#f8fafc" stroke-linecap="round" stroke-linejoin="round" stroke-width="4">
<path d="M22 25h20"/>
<path d="M18 20 12 15"/>
<path d="M46 20 52 15"/>
<path d="M19 31 11 29"/>
<path d="M45 31 53 29"/>
<path d="M20 40 14 46"/>
<path d="M44 40 50 46"/>
<path d="M32 22c9 0 16 6 16 14 0 11-8 16-16 16s-16-5-16-16c0-8 7-14 16-14Z"/>
<path d="M26 33c0-4 3-7 6-7s6 3 6 7"/>
<path d="M25 40c2 3 4 4 7 4s5-1 7-4"/>
</g>
<circle cx="26" cy="35" r="2.5" fill="#38bdf8"/>
<circle cx="38" cy="35" r="2.5" fill="#38bdf8"/>
</svg>
